<?xml version="1.0" standalone="no"?><!DOCTYPE svg PUBLIC "-//W3C//DTD SVG 1.1//EN" "http://www.w3.org/Graphics/SVG/1.1/DTD/svg11.dtd"><svg t="1612833759629" class="icon" viewBox="0 0 1024 1024" version="1.1" xmlns="http://www.w3.org/2000/svg" p-id="36754" xmlns:xlink="http://www.w3.org/1999/xlink" width="200" height="200"><defs><style type="text/css"></style></defs><path d="M533.61158461 90.6885286C301.13843538 90.6885286 112.02326762 279.80369635 112.02326762 512.27684558c0 232.47877039 189.11657346 421.59534384 421.58972269 421.59534384 232.47877039 0 421.59534384-189.11657346 421.59534385-421.59534384C955.20833333 279.80369635 766.09175987 90.6885286 533.61158461 90.6885286L533.61158461 90.6885286zM533.61158461 873.64629083c-199.26149468 0-361.36382409-162.10232858-361.3638241-361.36944525 0-199.26149468 162.10232858-361.36382409 361.3638241-361.3638241 199.26711584 0 361.36944525 162.10232858 361.36944525 361.3638241C894.98102904 711.54396143 732.87870046 873.64629083 533.61158461 873.64629083L533.61158461 873.64629083zM655.09487771 512.27684558c16.65149936 0 30.11154401-13.48955613 30.111544-30.11013831 0-16.62479929-13.46004465-30.11576028-30.11154401-30.11576028l-91.36753362 0 0 3.60461618 111.60257024-116.57033542c11.47434329-12.04349304 11.29024841-31.10790811-0.75465032-42.57663024-11.98728067-11.44623752-30.89570581-11.02323944-42.42907288 1.05117077l-95.61156565 100.48798581-101.24263613-101.03043466c-11.80459067-11.77086374-30.83527798-11.71324567-42.5808457 0.06042865-11.74416284 11.77788977-12.31471829 30.83668286-0.54244886 42.5808457L503.50144548 451.2892698l0 0.76027149L414.30370809 452.04954211c-16.62479929 0-30.11576028 13.49096099-30.11576029 30.11576029 0 16.62058301 13.49096099 30.11013831 30.11576029 30.11013831l89.19773739 0 0 60.23151974L414.30370809 572.50696045c-16.62479929 0-30.11576028 13.45863894-30.11576029 30.1101383s13.49096099 30.11576028 30.11576029 30.11576029l89.19773739 0 0 89.52798477c0 16.65149936 13.49096099 30.11154401 30.11013831 30.11154401 16.62479929 0 30.11576028-13.46004465 30.11576029-30.11154401l0-89.52798477 91.36753363 0c16.65149936 0 30.11154401-13.4642601 30.111544-30.11576029s-13.46004465-30.11013831-30.11154401-30.1101383l-91.36753362 0 0-60.23151974L655.09487771 512.27684558 655.09487771 512.27684558z" p-id="36755"></path></svg>